:SAMPLES-PER-SECOND 30
:FULLY-SPECIFIED
:DEGREES
531
root  47.0876 38.937 10.8001 176.693 -42.1204 176.281
RightUpLeg  -9.30724 -6.71742 -9.078
RightLeg  38.1086 -2.00182 -1.93696
RightFoot  -13.004 -0.0442116 3.02555
RightToes  5.23868e-010 0 -3.6325e-017
Spine  5.61647 -0.659738 -0.710984
Spine1  16.1883 -0.687781 -2.45642
HEad  3.97403 -21.0528 -27.9378
LeftShoulder1  0.0123463 3.46846 -29.4807
LeftArm  -13.4084 2.53631 -40.218
LeftForeArm  51.8407 -78.4385 -71.4496
LeftHand  0.0253092 3.99811 -4.23491
RightShoulder  -0.480147 -4.94736 26.2974
RightArm  -14.7325 -13.3718 35.2084
RightForeArm  105.553 73.4723 136.845
RightHand  -0.0395826 -3.10469 -1.20449
LeftUpLeg  0.310798 7.9657 -3.12112
LeftLeg  14.4629 14.1882 1.03689
LeftFoot  -9.78337 0.0081967 3.71792
LeftToes  -4.9204e-010 1.02043e-011 -1.81609e-011
532
root  46.5366 38.9847 10.3527 176.536 -45.88 176.796
RightUpLeg  -12.2758 -6.31598 -7.58629
RightLeg  36.3885 -1.17396 -1.20166
RightFoot  -13.0152 -0.0350586 3.6524
RightToes  5.23868e-010 0 -3.6325e-017
Spine  6.44429 -1.02357 -0.421408
Spine1  15.6179 -0.958737 -2.56503
HEad  3.3302 -22.9226 -25.5886
LeftShoulder1  0.0561119 3.34302 -28.9903
LeftArm  -13.4377 2.19404 -40.4844
LeftForeArm  54.2393 -78.585 -73.8192
LeftHand  0.0204975 4.12713 -4.29495
RightShoulder  -0.676055 -5.4989 27.1806
RightArm  -14.9738 -12.9998 34.7351
RightForeArm  107.04 73.2105 137.81
RightHand  -0.0371823 -3.63445 -1.13635
LeftUpLeg  1.5091 7.50573 -2.89958
LeftLeg  13.7103 10.9931 0.643307
LeftFoot  -10.4345 0.0328495 3.75474
LeftToes  -4.9204e-010 1.02043e-011 -1.81609e-011
533
root  45.9462 39.0192 9.89983 176.587 -50.0222 176.759
RightUpLeg  -14.1907 -6.90309 -7.17541
RightLeg  31.9401 0.242971 -0.0595483
RightFoot  -12.5547 -0.0421792 4.01271
RightToes  5.23868e-010 0 -3.6325e-017
Spine  7.42425 -1.56589 -1.17551
Spine1  14.9367 -1.93077 -1.14376
HEad  2.83196 -23.7191 -25.0999
LeftShoulder1  -0.0400809 3.61611 -29.8391
LeftArm  -13.098 1.54844 -39.9868
LeftForeArm  56.8898 -78.7239 -76.9805
LeftHand  -0.00109689 4.63476 -4.35245
RightShoulder  -0.485906 -4.98844 25.9206
RightArm  -16.0765 -13.9736 35.5038
RightForeArm  108.046 72.7823 139.098
RightHand  -0.0241051 -3.72666 -0.308902
LeftUpLeg  2.98948 6.9745 -3.06007
LeftLeg  12.8395 7.62607 0.354382
LeftFoot  -10.9336 0.0522168 3.93932
LeftToes  -4.9204e-010 1.02043e-011 -1.81609e-011
534
root  45.3219 39.0419 9.29752 176.669 -52.5253 176.983
RightUpLeg  -15.6557 -5.3049 -6.54261
RightLeg  25.3947 0.538911 0.072876
RightFoot  -11.5983 -0.070092 4.12815
RightToes  5.23868e-010 0 -3.6325e-017
Spine  7.05887 -1.36917 -1.09388
Spine1  15.5921 -1.71943 -0.816009
HEad  1.96523 -24.2946 -23.8295
LeftShoulder1  0.0302168 3.41777 -29.5779
LeftArm  -13.3114 0.94394 -40.4706
LeftForeArm  58.5364 -78.793 -78.5768
LeftHand  0.0141022 4.2794 -4.30255
RightShoulder  -0.469683 -4.9425 25.7888
RightArm  -16.5651 -14.4831 35.4199
RightForeArm  108.567 72.2382 140.536
RightHand  -0.0249863 -2.93348 -0.454269
LeftUpLeg  4.54231 7.41062 -2.28853
LeftLeg  12.0016 4.57959 -0.451192
LeftFoot  -11.5951 0.0799087 4.64856
LeftToes  -4.9204e-010 1.02043e-011 -1.81609e-011
535
root  44.6171 39.0055 8.67607 177.423 -55.4543 176.569
RightUpLeg  -16.3367 -4.33324 -6.99266
RightLeg  17.4569 1.18007 0.164629
RightFoot  -10.2435 -0.118181 5.02603
RightToes  5.23868e-010 0 -3.6325e-017
Spine  6.4478 -1.49504 -0.73997
Spine1  15.9621 -1.61398 -1.21571
HEad  1.86664 -24.0997 -23.8692
LeftShoulder1  0.101199 3.2145 -28.8711
LeftArm  -13.4767 0.481738 -41.1462
LeftForeArm  58.868 -78.8045 -78.9615
LeftHand  -0.00557004 4.70595 -4.21239
RightShoulder  -0.475614 -4.94687 26.105
RightArm  -17.1718 -14.5994 35.3377
RightForeArm  109.017 71.9855 141.194
RightHand  -0.0325034 -3.6471 -0.816242
LeftUpLeg  5.98237 7.63369 -1.87919
LeftLeg  11.2457 1.44522 -1.11855
LeftFoot  -12.5472 0.123279 4.59214
LeftToes  -4.9204e-010 1.02043e-011 -1.81609e-011
536
root  43.832 38.9074 8.02186 178.32 -58.393 175.518
RightUpLeg  -16.0439 -4.28311 -7.72519
RightLeg  9.32107 3.35494 -0.443238
RightFoot  -8.71784 -0.19804 6.04683
RightToes  5.23868e-010 0 -3.6325e-017
Spine  6.62488 -1.68416 -0.711347
Spine1  15.5997 -1.71958 -1.31047
HEad  2.23921 -24.4859 -23.5147
LeftShoulder1  0.0330137 3.41127 -29.4415
LeftArm  -13.1152 0.14296 -40.7699
LeftForeArm  60.9625 -78.8776 -80.9313
LeftHand  0.0207884 3.97106 -3.68414
RightShoulder  -0.469807 -4.93167 26.0409
RightArm  -17.4405 -15.1119 35.3386
RightForeArm  108.891 71.6443 141.955
RightHand  -0.0484025 -3.14313 -1.6876
LeftUpLeg  7.84031 7.69801 -1.67985
LeftLeg  10.8488 -1.63022 -1.54976
LeftFoot  -13.7726 0.172682 4.21923
LeftToes  -4.9204e-010 1.02043e-011 -1.81609e-011
537
root  42.9622 38.7607 7.28152 179.179 -61.1596 174.454
RightUpLeg  -15.6587 -6.39223 -7.6733
RightLeg  2.95634 9.20387 -1.74626
RightFoot  -7.40819 -0.295715 7.1399
RightToes  5.23868e-010 0 -3.6325e-017
Spine  6.01972 -1.74453 -0.153182
Spine1  16.1466 -1.54488 -1.86081
HEad  2.7523 -24.7867 -23.715
LeftShoulder1  0.041514 3.38602 -29.0699
LeftArm  -13.0781 -0.214489 -41.4523
LeftForeArm  61.1647 -78.8839 -81.0926
LeftHand  -0.00503981 4.6481 -3.73244
RightShoulder  -0.511653 -5.05631 26.1452
RightArm  -17.8068 -15.5806 35.1587
RightForeArm  109.945 71.1674 143.13
RightHand  -0.0562166 -3.03616 -2.02506
LeftUpLeg  9.78994 8.03617 -1.01389
LeftLeg  10.8813 -4.92272 -2.11125
LeftFoot  -15.2553 0.230634 4.06775
LeftToes  -4.9204e-010 1.02043e-011 -1.81609e-011
538
root  42.0351 38.5287 6.4455 179.209 -63.6077 173.998
RightUpLeg  -15.1225 -7.02146 -7.71304
RightLeg  0.303931 12.3865 -2.56274
RightFoot  -7.07127 -0.364001 8.40177
RightToes  5.23868e-010 0 -3.6325e-017
Spine  6.13826 -1.57351 0.147389
Spine1  15.778 -1.49269 -1.47492
HEad  3.37677 -25.0378 -23.6559
LeftShoulder1  0.0483773 3.36902 -29.7713
LeftArm  -12.8318 -0.00907776 -41.0344
LeftForeArm  60.3101 -78.8563 -80.3233
LeftHand  0.0150561 4.1611 -3.99357
RightShoulder  -0.504953 -5.04084 26.0342
RightArm  -17.8311 -16.0583 34.6238
RightForeArm  110.155 70.7362 144.046
RightHand  -0.0587397 -3.22049 -2.25379
LeftUpLeg  11.6692 8.20645 -0.0450408
LeftLeg  12.044 -7.66779 -2.07842
LeftFoot  -17.355 0.300668 3.74632
LeftToes  -4.9204e-010 1.02043e-011 -1.81609e-011
539
root  41.0594 38.2672 5.56291 178.75 -66.0291 174.068
RightUpLeg  -14.7584 -6.95086 -7.79296
RightLeg  2.03439 11.2302 -2.09446
RightFoot  -6.12813 -0.382752 7.88282
RightToes  5.23868e-010 0 -3.6325e-017
Spine  5.56889 -1.50973 0.881371
Spine1  16.5235 -1.49506 -1.24929
HEad  3.41745 -25.0916 -23.1396
LeftShoulder1  0.0298029 3.42119 -29.9163
LeftArm  -12.4419 0.403443 -40.7693
LeftForeArm  59.9033 -78.8362 -80.5624
LeftHand  0.043134 3.24033 -3.41174
RightShoulder  -0.507338 -5.06081 25.7689
RightArm  -17.8999 -16.032 34.5015
RightForeArm  111.088 70.5541 144.521
RightHand  -0.0477122 -3.09961 -1.54081
LeftUpLeg  13.3925 7.70421 1.00738
LeftLeg  13.5236 -9.69302 -1.70154
LeftFoot  -19.602 0.354699 3.27312
LeftToes  -4.9204e-010 1.02043e-011 -1.81609e-011
540
root  40.1 38.0535 4.70251 177.37 -68.6868 175.31
RightUpLeg  -14.9697 -6.17081 -7.51983
RightLeg  6.63292 8.42401 -1.10287
RightFoot  -0.762038 -0.569783 5.79342
RightToes  5.23868e-010 0 -3.6325e-017
Spine  5.48276 -1.78143 2.65142
Spine1  16.5754 -1.66721 -1.12945
HEad  3.50116 -24.6636 -22.3453
LeftShoulder1  -0.00970015 3.53079 -29.8261
LeftArm  -12.3559 1.19991 -40.1614
LeftForeArm  61.8572 -78.8899 -82.6387
LeftHand  0.0109941 4.17062 -3.44094
RightShoulder  -0.513959 -5.07488 25.9055
RightArm  -17.4267 -16.0247 34.4105
RightForeArm  110.385 70.2943 144.94
RightHand  -0.0673981 -2.75582 -2.34173
LeftUpLeg  14.7401 4.07663 1.50015
LeftLeg  14.7784 -8.77368 -0.997714
LeftFoot  -21.3332 0.358974 2.64333
LeftToes  -4.9204e-010 1.02043e-011 -1.81609e-011
541
root  39.1251 37.7817 3.84036 174.439 -70.9101 178.073
RightUpLeg  -15.3728 -5.00111 -7.31474
RightLeg  11.6106 7.50643 0.337088
RightFoot  4.95235 -1.01564 7.38969
RightToes  5.23868e-010 0 -3.6325e-017
Spine  5.82572 -2.0238 5.37927
Spine1  16.1026 -1.47549 -1.81172
HEad  3.74055 -24.1935 -21.7445
LeftShoulder1  0.00309521 3.49533 -29.7504
LeftArm  -12.3733 2.00187 -39.61
LeftForeArm  62.8393 -78.9001 -84.2193
LeftHand  -0.0097568 4.76234 -3.39592
RightShoulder  -0.52133 -5.09124 26.0391
RightArm  -16.7845 -15.9689 33.9731
RightForeArm  110.929 70.2023 145.181
RightHand  -0.0528756 -3.42121 -1.93258
LeftUpLeg  14.9438 -2.3792 1.59425
LeftLeg  18.6772 -4.25997 -0.975121
LeftFoot  -22.972 0.229601 0.949904
LeftToes  -4.9204e-010 1.02043e-011 -1.81609e-011
542
root  38.1912 37.5141 2.96733 169.214 -72.1474 -177.544
RightUpLeg  -15.3715 -4.61573 -6.33901
RightLeg  17.9467 5.94832 1.94069
RightFoot  3.9662 -0.806182 6.13867
RightToes  5.23868e-010 0 -3.6325e-017
Spine  7.14958 -1.96721 8.35989
Spine1  15.7985 -0.854006 -2.40972
HEad  3.29999 -23.878 -20.5404
LeftShoulder1  0.0278961 3.42587 -30.0052
LeftArm  -12.5884 2.54846 -39.2809
LeftForeArm  62.5589 -78.9005 -83.6455
LeftHand  0.0291629 3.92276 -4.33508
RightShoulder  -0.533652 -5.12737 26.0793
RightArm  -16.0576 -15.2162 33.7805
RightForeArm  109.046 70.5333 144.311
RightHand  -0.103741 -1.38476 -2.82759
LeftUpLeg  14.2618 -4.34624 3.71697
LeftLeg  25.8806 -4.02504 -1.86563
LeftFoot  -23.2509 -0.153902 -2.84652
LeftToes  -4.9204e-010 1.02043e-011 -1.81609e-011
543
root  37.3323 37.381 2.13871 165.353 -74.6447 -173.154
RightUpLeg  -16.0407 -7.31619 -5.03916
RightLeg  22.9919 5.67744 2.41048
RightFoot  0.868849 -0.403303 3.85227
RightToes  5.23868e-010 0 -3.6325e-017
Spine  6.77632 -2.33809 9.74305
Spine1  15.7823 -1.16735 -1.16623
HEad  3.55945 -22.6461 -19.8037
LeftShoulder1  -0.050443 3.64172 -30.6011
LeftArm  -12.4246 3.00496 -38.4566
LeftForeArm  60.9933 -78.8602 -82.2427
LeftHand  0.0190951 4.03087 -3.78793
RightShoulder  -0.514215 -5.0727 25.9675
RightArm  -15.1677 -14.1994 33.6701
RightForeArm  108.278 71.344 142.534
RightHand  -0.0586542 -2.90129 -2.07626
LeftUpLeg  9.81268 -5.58833 6.16314
LeftLeg  35.6169 -5.08035 -3.55161
LeftFoot  -19.7086 -0.386189 -7.45267
LeftToes  -4.9204e-010 1.02043e-011 -1.81609e-011
